<svg xmlns="http://www.w3.org/2000/svg" width="5.33333in" height="5.33333in" fill="purple" viewBox="0 0 5264.42 5264.42">
 <g id="Layer_x0020_1">
  <g id="_1625856079568">
   <path class="fil0" d="M709.46 3279.98c10.68,45.82 37.74,92.92 41.13,133.67l-195.36 0c16.69,-24.93 125.77,-114.61 154.23,-133.67zm-709.46 267.37l0 -117.8c11.29,-66.99 41.4,-135.9 90.89,-202.63 91.33,-123.16 201.05,-223.69 323.2,-314.28 54.74,-40.6 125.92,-108.4 192.55,-126.19 0,-74.98 -10.28,-107.57 -10.28,-174.79 0,-215.65 124.03,-194.19 155.03,-134.49 17.83,34.34 9.65,123.25 9.45,175.65 -0.63,163.49 28.68,319.02 65.77,468.89 13.68,55.27 25.52,90.47 43.38,141.69 14.62,41.95 41.69,88.68 45.11,129.69 84.92,-7.07 178.03,-29.16 264.51,-43.95 454.74,-77.75 969.26,-238.85 1399.69,-399.67 68.93,-25.75 147.47,-52.81 217.52,-80.66 253.51,-100.82 500.57,-197.7 747.11,-311.94 238.57,-110.55 464.74,-225.95 689.03,-359.74 55.55,-33.14 129.77,-94.22 188.33,-109.85 -16.29,-69.9 -50.99,-153.41 -79.25,-218.93 -57.31,-132.88 -134.06,-259.12 -223.27,-373.09 -24.74,-31.6 -43.51,-55.94 -70.21,-84.01 -26.08,-27.42 -39.24,-54.36 -69.4,-74.55 -44.14,10.28 -79.23,33.33 -127.41,47.39 -235.12,68.59 -501.17,-2.52 -677.12,-157.97 -113.92,-100.64 -181.84,-231.24 -215.33,-391.31 -13.81,-65.98 -35.91,-59.17 -142.09,-63.55 -67.39,-2.78 -107.08,-10.35 -185.01,-10.35 -548.4,0 -1057.52,227.77 -1401.44,634.41 -82.88,97.99 -154.17,186.44 -219.96,304.42 -78.97,141.61 -146.89,292.62 -186.03,451.46 -37.39,151.73 -133.15,151.57 -168.27,70.41 -43.86,-101.34 193.55,-565.43 237.42,-638.75 130.56,-218.23 287.71,-390.49 482.51,-545.69 189.33,-150.84 412.45,-273.72 676.19,-352.02 178.97,-53.14 374.69,-73.5 559.9,-88.57l229.89 15.79c36.29,5.28 80.05,12.49 108.52,14.86 6.99,-313.72 344.28,-627.21 658.05,-627.21 242.1,0 388.62,55.87 552.68,218.47 303.92,301.21 232.61,826.9 -48.86,1015.38 40.9,61.07 98.33,108.01 133.67,174.79 95.13,0 254.87,-30.85 390.72,-30.85 296.19,0 627.21,77.88 627.21,421.57 0,277.07 -509.1,652.57 -606.64,678.62 0,69.47 14.51,137.17 6.18,190.78 -9.04,58.18 -6.41,132.75 -13.3,182.54 -32.5,234.64 -84.58,419.39 -172.01,630 -152.16,366.54 -242.44,171.96 -242.44,158.56 0,-53 29.23,-90.73 51.54,-133.54 19.38,-37.17 35.6,-69.81 52.76,-111.75 31.19,-76.21 65.87,-154.8 89.02,-240.01 50.07,-184.28 74.01,-340.89 74.01,-573.76 -48.09,32.2 -104.34,63.01 -154.69,92.07 -615.13,355.06 -1552.42,715.56 -2208.88,916.87 -71.11,21.81 -320.05,133.13 -320.05,-11.58 0,-95.04 130.81,-99.36 199.05,-119.7 559.01,-166.6 1090.21,-373.39 1621.01,-610.19 217.31,-96.95 432.28,-201.65 636.82,-319.41 193.49,-111.4 406.75,-236.21 574.04,-382.19 155.77,-135.94 424.84,-417.03 115.49,-553.04 -178.68,-78.56 -413.61,-41.03 -606.74,-41.03 9.31,39.97 61.67,115.33 82.25,154.23 72.54,-34.81 339.64,-14.45 434.72,7.42 258.77,59.53 -254.75,424.53 -319.56,467.61 -156.82,104.26 -314.35,204.48 -481.73,289.42 -47.65,24.18 -86.32,45.82 -127.71,67.65l-129.36 66c-795.75,380.84 -1689,716.85 -2554.38,890.12 -232.22,46.5 -584.39,123.98 -844.91,65.19 -204.6,-46.17 -46.93,-212.7 48.11,-286.2 65.17,-50.4 118.96,-110.16 191.02,-148.29 -4.52,-54.36 -26.32,-110.16 -30.84,-164.51 -66.1,34.98 -121.93,81.31 -180.84,127.62 -389.52,306.13 -408.59,633.25 108.87,633.25 312.53,0 601.57,-46.86 892.5,-115.14 18.38,-4.31 111.63,-27.14 125.82,-26.91 104.04,1.74 115.88,131.21 0,163.01 -39.29,10.78 -87.79,19.49 -125.82,28.41 -49.68,11.66 -226.71,39.87 -255.01,53.45 15.44,23.06 39.69,47.94 60.16,73.51 58.98,73.69 138.47,129.33 209.46,191.54 194.57,170.54 447.28,286.14 696.78,351.99 580.67,153.25 1240.05,-4.99 1673.03,-373.35l206.03 -205.25c49.95,-58.2 156.91,-77.34 156.91,33.52 0,128.17 -488.22,468.95 -644.18,548.54 -324.1,165.39 -738.81,257.58 -1111.3,209.59 -122.53,-15.79 -254.78,-38.83 -370.75,-71.38 -280.73,-78.79 -560.26,-221.49 -770.73,-421.99l-185.18 -184.97c-13.39,-15.06 -22.35,-21.13 -35.8,-36.18 -23.67,-26.49 -50.13,-50.71 -59.22,-84.73 -78.06,0 -147.37,14.62 -216.49,19.99 -75.87,5.9 -141.19,10.85 -215.35,10.85 -352.65,0 -552.57,-149.92 -586.08,-339.28zm4554.96 -1562.91c-10.94,-46.95 -31.62,-82.57 -41.13,-123.38 44.55,-0.99 42.09,-9.15 92.2,-10.62 33.35,-0.98 69.45,0.34 103.16,0.34 -31.56,47.12 -105.68,101.16 -154.23,133.67zm-1449.78 -1274.98c0,-219.16 128.42,-410.83 305.57,-496.43 71.39,-34.49 118.91,-41.59 213.08,-54.95 133.14,-18.89 312.49,58.04 410.92,156.47l98.34 127.87c108.99,186.36 82.35,453.58 -78.65,630.23l-24.89 26.52c-2.15,2.07 -8.58,7.76 -10.78,9.78 -95.31,87.48 -264.95,157.49 -386.05,143.14 -166.63,-19.75 -274.92,-66.35 -371.03,-164.46 -78.05,-79.67 -156.51,-224.07 -156.51,-378.16z"/>
   <path class="fil0" d="M945.95 5110.19c-92.49,0 -185.66,-46.71 -234.26,-94.77 -179.91,-177.93 -110.95,-443.02 85.03,-537.72 333.99,-161.39 629.59,266.55 383.53,527.49 -51.29,54.4 -161.41,105 -234.3,105zm28.7 154.23l-69.92 0c-113.64,-7.96 -224.91,-54.75 -311.24,-141.08 -127.01,-127.01 -141.07,-232.22 -141.07,-393.59 0,-120.4 82.74,-243.99 146.22,-306.19 112.76,-110.46 220.64,-135.94 378.16,-135.94 371.65,0 622.54,519.06 316.48,830.58 -87.56,89.12 -201.91,138.07 -318.62,146.22z"/>
  </g>
 </g>
</svg>
