<?xml version="1.0" encoding="utf-8"?>
<!-- Generator: Adobe Illustrator 25.2.3, SVG Export Plug-In . SVG Version: 6.00 Build 0)  -->
<svg version="1.1" id="Capa_1" xmlns="http://www.w3.org/2000/svg" xmlns:xlink="http://www.w3.org/1999/xlink" x="0px" y="0px"
	 viewBox="0 0 383.61 390.58" style="enable-background:new 0 0 383.61 390.58;" xml:space="preserve">
<style type="text/css">
	.st0{fill:#000;}
</style>
<path class="st0" d="M379.56,123.23c-5.08-7.86-13.04-11.38-21.67-13.45c-8.35-2-16.93-2.18-25.48-1.72
	c-6.93,0.38-13.84,1.02-20.76,1.61c-1.4,0.12-2.29-0.25-3.22-1.41c-2.61-3.28-5.38-6.42-8.16-9.56c-0.88-1-0.63-1.58,0.24-2.36
	c8.02-7.11,13.28-15.97,15.6-26.37c3.38-15.18,0.58-29.3-8.61-41.9c-6.73-9.23-15.62-15.61-26.69-18.76
	c-2.82-0.81-5.67-1.5-8.51-2.25c-3.99,0-7.99,0-11.98,0c-0.83,0.23-1.65,0.54-2.5,0.68c-6.34,1.06-12.37,3.13-17.79,6.52
	c-13.55,8.49-22.08,20.47-24.47,36.5c-0.21,1.43-0.78,2.11-2.36,1.88c-2.45-0.35-4.92-0.53-7.38-0.8
	c-16.84-1.82-33.46-0.4-49.85,3.65c-9.72,2.4-19.11,5.83-28.16,10.16c-11.44,5.47-22.03,12.29-31.66,20.5
	C83.15,97.23,72.34,110.2,63.76,125c-5.27,9.09-9.49,18.67-12.74,28.65c-1.4,4.29-2.42,8.74-3.13,13.2
	c-0.45,2.86,1.7,4.94,4.59,5.36c2.73,0.4,5.27-1.15,6.04-3.82c0.6-2.06,0.97-4.19,1.59-6.25c4.45-14.76,10.73-28.66,19.64-41.31
	c12.59-17.87,28.43-32.02,47.68-42.44c14.74-7.97,30.43-12.93,46.97-15.03c11.44-1.45,22.96-1.21,34.44-0.04
	c2.04,0.21,4.36,0.28,5.94,1.34c0.98,0.66,0.79,3.05,1.14,4.66c0.05,0.23,0.19,0.44,0.25,0.67c2.44,9.59,7.02,17.94,14.11,24.93
	c6.43,6.35,14.02,10.78,22.66,13.04c10.92,2.85,21.78,2.33,32.36-2.05c4.7-1.94,4.77-1.83,8.33,2.09
	c13.05,14.37,22.17,31.01,28.32,49.34c0.19,0.55-0.29,1.68-0.81,2.05c-1.99,1.43-4.06,2.77-6.2,3.96
	c-13.29,7.39-26.4,15.16-39.98,21.98c-13.66,6.85-27.7,13-41.78,18.98c-14,5.95-28.14,11.62-42.43,16.83
	c-14.16,5.16-28.52,9.77-42.9,14.27c-11.37,3.56-22.83,6.9-34.39,9.75c-11.43,2.82-23.03,4.96-34.58,7.31
	c-3.94,0.8-7.95,1.31-11.89,1.94c-1.03-2.59-1.97-4.87-2.85-7.16c-4.11-10.67-7-21.68-7.92-33.07c-0.61-7.55-0.39-15.16-0.74-22.73
	c-0.07-1.55-0.7-3.26-1.59-4.54c-1.49-2.13-3.96-2.05-6.11-1.36c-2.31,0.74-3.52,2.71-3.54,5.15c-0.06,5.75,0.05,11.5-0.04,17.25
	c-0.01,0.89-0.44,2.16-1.1,2.59c-9.62,6.32-18.91,13.06-27.16,21.12c-5.93,5.79-11.18,12.09-14.11,20.01
	c-0.63,1.71-1.21,3.43-1.81,5.14c0,2.88,0,5.75,0,8.63c0.24,0.58,0.53,1.14,0.7,1.73c1.31,4.57,3.39,8.66,6.92,11.98
	c7.57,7.11,17,9.46,26.89,10.16c12.38,0.88,24.74-0.05,37.05-1.55c1.59-0.19,2.43,0.27,3.38,1.49
	c13.01,16.62,28.71,30.07,47.37,39.99c11.69,6.22,23.93,11.07,36.98,13.55c7.51,1.42,15.07,2.93,22.67,3.41
	c20.82,1.32,41.12-1.42,60.78-8.75c10.01-3.73,19.54-8.34,28.51-14.06c12.24-7.81,23.09-17.28,32.57-28.31
	c2.32-2.69,2.37-6.21,0-8.31c-2.38-2.12-5.77-1.93-8.07,0.65c-8.65,9.67-18.15,18.34-29.02,25.49
	c-10.55,6.94-21.83,12.35-33.82,16.14c-9.27,2.93-18.81,4.71-28.54,5.67c-16.82,1.67-33.31-0.05-49.5-4.49
	c-13.29-3.65-25.74-9.37-37.33-16.9c-10.3-6.69-19.55-14.59-27.7-23.76c-1.08-1.21-2.1-2.47-3.41-4.03
	c3.69-0.76,6.94-1.4,10.17-2.11c6.6-1.45,13.22-2.82,19.77-4.45c3.08-0.76,4.33-3.32,3.68-6.47c-0.59-2.87-2.84-4.57-5.89-4.26
	c-1.48,0.15-2.92,0.7-4.4,0.99c-9.45,1.86-18.87,3.96-28.38,5.47c-9.52,1.51-19.1,2.87-28.71,3.47c-7.27,0.45-14.62-0.29-21.93-0.7
	c-4.6-0.26-8.91-1.79-12.75-4.32c-2.88-1.9-5.14-4.36-6.1-7.89c-1.74-6.41,0.7-11.73,4.18-16.76c4.41-6.38,10.15-11.52,16.17-16.33
	c4.2-3.35,8.61-6.44,13.27-9.89c0.4,1.17,0.75,1.94,0.91,2.74c0.34,1.64,0.53,3.3,0.88,4.94c1.13,5.19,1.4,4.06-2.67,7.16
	c-7.29,5.55-14.14,11.55-19.89,18.73c-2.69,3.35-1.83,7.74,1.98,9.32c1.3,0.54,2.71,1.04,4.09,1.13c5.65,0.39,11.31,0.96,16.95,0.82
	c6.44-0.16,12.87-0.94,19.29-1.6c4.6-0.47,9.22-0.93,13.74-1.85c11.38-2.31,22.73-4.78,34.06-7.36c6.35-1.45,12.65-3.15,18.92-4.94
	c7.94-2.26,15.86-4.61,23.72-7.14c10.06-3.23,20.12-6.48,30.05-10.07c12.16-4.39,24.26-8.95,36.24-13.8
	c13.14-5.32,26.31-10.66,39.12-16.72c14.62-6.92,28.97-14.44,43.24-22.06c13.72-7.33,26.81-15.73,38.92-25.53
	c5.24-4.24,10.22-8.77,13.98-14.44c2.54-3.84,0.98-8.54-3.06-9.35c-1.72-0.34-3.46-0.74-5.2-0.77c-8.44-0.14-16.89-0.15-25.33-0.27
	c-0.86-0.01-2.17-0.15-2.51-0.7c-2.03-3.25-3.84-6.65-5.85-10.23c5.54-0.44,10.7-1.06,15.88-1.23c9.75-0.31,19.45,0.04,28.7,3.76
	c7.39,2.97,11.38,9.02,10.41,15.54c-0.67,4.46-2.68,8.27-5.31,11.78c-6.55,8.73-14.91,15.58-23.84,21.63
	c-9.44,6.4-19.05,12.61-28.97,18.24c-11.98,6.8-24.24,13.13-36.61,19.21c-10.22,5.02-20.72,9.52-31.2,14
	c-10.57,4.52-21.22,8.9-31.94,13.05c-10.66,4.13-21.4,8.05-32.21,11.78c-9.68,3.34-19.48,6.32-29.24,9.39
	c-5.23,1.65-10.54,3.04-15.74,4.77c-3.45,1.14-5.09,4.18-4.16,6.96c1.1,3.26,4.11,4.75,7.69,3.74c4.36-1.23,8.73-2.41,13.05-3.78
	c9.22-2.92,18.44-5.85,27.61-8.95c8.35-2.82,16.66-5.73,24.91-8.83c9.57-3.6,19.1-7.35,28.56-11.23
	c10.42-4.27,20.79-8.67,31.1-13.19c6.82-2.99,13.57-6.14,20.22-9.48c9.49-4.75,18.89-9.68,28.28-14.63
	c4.57-2.41,9.02-5.06,13.69-7.69c0.14,0.64,0.28,1.02,0.29,1.4c0.35,14.97-1.91,29.6-6.38,43.84c-3.07,9.77-7.27,19.1-12.56,27.92
	c-1.51,2.53-0.52,5.97,1.81,7.42c2.44,1.52,5.7,1.03,7.47-1.36c1.31-1.77,2.44-3.7,3.44-5.66c6.11-11.9,10.93-24.25,13.8-37.39
	c2.11-9.64,3.4-19.32,3.53-29.16c0.06-4.15-0.13-8.31-0.05-12.46c0.02-0.87,0.5-2.05,1.17-2.55c6.71-5.03,13.69-9.71,20.21-14.96
	c7.8-6.27,14.84-13.34,19.4-22.46C384.58,140.81,385.16,131.89,379.56,123.23z M266.14,98.46c-21.96,0.07-40.2-17.93-39.91-40.06
	c-0.41-21.82,18-40.14,39.96-40.05c22.13,0.1,40.23,18.07,40.04,40.1C306.04,80.84,288.46,98.38,266.14,98.46z M40.76,255.85
	c-0.12-0.21-0.24-0.42-0.36-0.63c3.56-3.02,7.12-6.04,11.16-9.46c1.29,3.55,2.39,6.59,3.66,10.1
	C49.88,255.85,45.32,255.85,40.76,255.85z M330.1,142.1c4.35-0.13,8.71-0.08,13.07-0.08c0.13,0.19,0.26,0.39,0.4,0.58
	c-3.68,3.05-7.36,6.09-11.44,9.47c-1.22-3.14-2.3-5.68-3.15-8.3C328.83,143.36,329.68,142.11,330.1,142.1z"/>
<path class="st0" d="M68.55,319.43c-19.72,0.06-35.67,16.02-35.58,35.67c0.08,19.52,15.94,35.45,35.47,35.47
	c19.51,0.08,35.53-15.89,35.63-35.37C104.17,335.6,88.14,319.37,68.55,319.43z M68.56,379.3c-13.47,0.06-24.4-10.85-24.39-24.32
	c0.01-13.33,10.95-24.3,24.24-24.32c13.41-0.02,24.56,11.01,24.44,24.41C92.74,368.25,82.31,379.23,68.56,379.3z"/>
</svg>
